<svg width="316" height="105" viewBox="0 0 316 105" fill="none" xmlns="http://www.w3.org/2000/svg">
<path d="M43.7337 0.615996V103H24.2937V27.976L0.173688 37.768V18.184L43.7337 0.615996ZM102.796 0.615996V103H83.3562V27.976L59.2362 37.768V18.184L102.796 0.615996ZM134.571 31.36C138.267 31.36 141.507 32.752 144.291 35.536C147.075 38.272 148.467 41.512 148.467 45.256C148.467 49.048 147.075 52.336 144.291 55.12C141.507 57.904 138.267 59.296 134.571 59.296C130.827 59.296 127.539 57.904 124.707 55.12C121.923 52.336 120.531 49.048 120.531 45.256C120.531 41.512 121.923 38.272 124.707 35.536C127.539 32.752 130.827 31.36 134.571 31.36ZM134.571 76.864C138.267 76.864 141.507 78.256 144.291 81.04C147.075 83.776 148.467 87.016 148.467 90.76C148.467 94.552 147.075 97.84 144.291 100.624C141.507 103.408 138.267 104.8 134.571 104.8C130.827 104.8 127.539 103.408 124.707 100.624C121.923 97.84 120.531 94.552 120.531 90.76C120.531 87.016 121.923 83.776 124.707 81.04C127.539 78.256 130.827 76.864 134.571 76.864ZM171.844 30.064L159.316 17.752C168.196 6.184 179.668 0.399995 193.732 0.399995C204.196 0.399995 212.5 3.39999 218.644 9.39999C224.836 15.352 227.932 23.2 227.932 32.944C227.932 38.608 226.684 43.72 224.188 48.28C221.74 52.792 218.14 57.496 213.388 62.392L191.86 84.784H230.38V103H163.78V87.808L199.42 51.304C204.94 45.688 207.7 39.928 207.7 34.024C207.7 29.608 206.284 26.008 203.452 23.224C200.62 20.392 196.9 18.976 192.292 18.976C187.924 18.976 184.204 19.936 181.132 21.856C178.06 23.776 174.964 26.512 171.844 30.064ZM301.081 2.19999L276.241 37.264C278.065 37.072 279.625 36.976 280.921 36.976C291.049 36.976 299.401 40.192 305.977 46.624C312.553 53.008 315.841 60.952 315.841 70.456C315.841 80.296 312.217 88.48 304.969 95.008C297.769 101.536 288.745 104.8 277.897 104.8C270.793 104.8 264.361 103.336 258.601 100.408C252.841 97.48 248.305 93.424 244.993 88.24C241.729 83.008 240.097 77.2 240.097 70.816C240.097 62.56 243.289 53.632 249.673 44.032L277.609 2.19999H301.081ZM277.897 54.04C272.857 54.04 268.657 55.6 265.297 58.72C261.985 61.792 260.329 65.752 260.329 70.6C260.329 75.448 261.985 79.432 265.297 82.552C268.657 85.624 272.857 87.16 277.897 87.16C283.033 87.16 287.257 85.624 290.569 82.552C293.929 79.432 295.609 75.448 295.609 70.6C295.609 65.752 293.929 61.792 290.569 58.72C287.209 55.6 282.985 54.04 277.897 54.04Z" fill="#222222"/>
</svg>
