<svg width="73" height="35" viewBox="0 0 73 35" fill="none" xmlns="http://www.w3.org/2000/svg">
<path d="M4.80744 10.688L0.631438 6.584C3.59144 2.728 7.41544 0.799998 12.1034 0.799998C15.5914 0.799998 18.3594 1.8 20.4074 3.8C22.4714 5.784 23.5034 8.4 23.5034 11.648C23.5034 13.536 23.0874 15.24 22.2554 16.76C21.4394 18.264 20.2394 19.832 18.6554 21.464L11.4794 28.928H24.3194V35H2.11944V29.936L13.9994 17.768C15.8394 15.896 16.7594 13.976 16.7594 12.008C16.7594 10.536 16.2874 9.336 15.3434 8.408C14.3994 7.464 13.1594 6.992 11.6234 6.992C10.1674 6.992 8.92744 7.312 7.90344 7.952C6.87944 8.592 5.84744 9.504 4.80744 10.688ZM31.8543 10.688L27.6783 6.584C30.6383 2.728 34.4623 0.799998 39.1503 0.799998C42.6383 0.799998 45.4063 1.8 47.4543 3.8C49.5183 5.784 50.5503 8.4 50.5503 11.648C50.5503 13.536 50.1343 15.24 49.3023 16.76C48.4863 18.264 47.2863 19.832 45.7023 21.464L38.5263 28.928H51.3663V35H29.1663V29.936L41.0463 17.768C42.8863 15.896 43.8063 13.976 43.8063 12.008C43.8063 10.536 43.3343 9.336 42.3903 8.408C41.4463 7.464 40.2063 6.992 38.6703 6.992C37.2143 6.992 35.9743 7.312 34.9503 7.952C33.9263 8.592 32.8943 9.504 31.8543 10.688ZM57.1252 6.608C58.8372 4.944 60.9812 4.112 63.5572 4.112C66.1332 4.112 68.2692 4.944 69.9652 6.608C71.6612 8.256 72.5092 10.328 72.5092 12.824C72.5092 15.32 71.6612 17.4 69.9652 19.064C68.2692 20.728 66.1332 21.56 63.5572 21.56C60.9812 21.56 58.8372 20.728 57.1252 19.064C55.4292 17.4 54.5812 15.32 54.5812 12.824C54.5812 10.328 55.4292 8.256 57.1252 6.608ZM66.5812 9.68C65.7812 8.864 64.7732 8.456 63.5572 8.456C62.3412 8.456 61.3332 8.864 60.5332 9.68C59.7332 10.496 59.3332 11.544 59.3332 12.824C59.3332 14.104 59.7332 15.16 60.5332 15.992C61.3332 16.808 62.3412 17.216 63.5572 17.216C64.7732 17.216 65.7812 16.808 66.5812 15.992C67.3812 15.16 67.7812 14.104 67.7812 12.824C67.7812 11.544 67.3812 10.496 66.5812 9.68Z" fill="#222222"/>
</svg>
